<svg width="105" height="59" viewBox="0 0 105 59" fill="none" xmlns="http://www.w3.org/2000/svg">
<path d="M100.47 24.5098C102.679 24.478 104.496 26.2428 104.527 28.4517C104.559 30.6606 102.794 32.4771 100.586 32.509L100.47 24.5098ZM1.75048 32.7628C0.166013 31.2234 0.129489 28.691 1.6689 27.1065L26.755 1.28622C28.2944 -0.298246 30.8268 -0.334771 32.4112 1.20464C33.9957 2.74404 34.0322 5.27644 32.4928 6.8609L10.1941 29.8123L33.1455 52.111C34.7299 53.6504 34.7665 56.1828 33.2271 57.7673C31.6876 59.3518 29.1553 59.3883 27.5708 57.8489L1.75048 32.7628ZM100.586 32.509L4.59551 33.8935L4.48013 25.8943L100.47 24.5098L100.586 32.509Z" fill="#779E39"/>
</svg>
