<svg width="78" height="78" viewBox="0 0 78 78" fill="none" xmlns="http://www.w3.org/2000/svg">
<path d="M56.0625 8.53125H21.9375C20.3213 8.53125 18.7714 9.17327 17.6286 10.3161C16.4858 11.4589 15.8438 13.0088 15.8438 14.625V68.25C15.8435 68.9028 16.0181 69.5437 16.3492 70.1062C16.6804 70.6687 17.1561 71.1323 17.727 71.4488C18.2979 71.7654 18.9431 71.9233 19.5957 71.9062C20.2482 71.8891 20.8843 71.6977 21.4378 71.3517L38.997 60.383L56.5622 71.3517C57.1157 71.6977 57.7518 71.8891 58.4043 71.9062C59.0569 71.9233 59.7021 71.7654 60.273 71.4488C60.8439 71.1323 61.3196 70.6687 61.6508 70.1062C61.9819 69.5437 62.1565 68.9028 62.1562 68.25V14.625C62.1562 13.0088 61.5142 11.4589 60.3714 10.3161C59.2286 9.17327 57.6787 8.53125 56.0625 8.53125ZM54.8438 61.6535L40.9348 52.9608C40.3537 52.5976 39.6822 52.405 38.997 52.405C38.3117 52.405 37.6402 52.5976 37.0591 52.9608L23.1562 61.6535V15.8438H54.8438V61.6535Z" fill="#0F4930"/>
</svg>
