<svg width="48" height="48" viewBox="0 0 48 48" fill="none" xmlns="http://www.w3.org/2000/svg">
<path d="M43.5918 15.0919L19.5918 39.0919C19.3828 39.3017 19.1344 39.4681 18.8609 39.5816C18.5874 39.6952 18.2942 39.7537 17.998 39.7537C17.7019 39.7537 17.4087 39.6952 17.1352 39.5816C16.8617 39.4681 16.6133 39.3017 16.4043 39.0919L5.90429 28.5919C5.695 28.3826 5.52898 28.1341 5.41571 27.8607C5.30244 27.5872 5.24414 27.2941 5.24414 26.9981C5.24414 26.7022 5.30244 26.4091 5.41571 26.1356C5.52898 25.8622 5.695 25.6137 5.90429 25.4044C6.11359 25.1951 6.36206 25.0291 6.63551 24.9158C6.90897 24.8025 7.20206 24.7442 7.49804 24.7442C7.79403 24.7442 8.08712 24.8025 8.36057 24.9158C8.63403 25.0291 8.8825 25.1951 9.09179 25.4044L17.9999 34.3125L40.408 11.9081C40.8307 11.4854 41.404 11.248 42.0018 11.248C42.5996 11.248 43.1729 11.4854 43.5955 11.9081C44.0182 12.3308 44.2557 12.9041 44.2557 13.5019C44.2557 14.0997 44.0182 14.673 43.5955 15.0956L43.5918 15.0919Z" fill="#E3DEDE"/>
</svg>
