<svg width="62" height="36" viewBox="0 0 62 36" fill="none" xmlns="http://www.w3.org/2000/svg">
<path d="M60.7272 7.10209L33.8522 33.9771C33.4777 34.3529 33.0327 34.6511 32.5427 34.8546C32.0527 35.058 31.5273 35.1628 30.9967 35.1628C30.4662 35.1628 29.9408 35.058 29.4508 34.8546C28.9608 34.6511 28.5158 34.3529 28.1413 33.9771L1.26627 7.10209C0.508953 6.34477 0.0834961 5.31763 0.0834961 4.24662C0.0834961 3.17561 0.508953 2.14847 1.26627 1.39115C2.02359 0.633833 3.05073 0.208377 4.12174 0.208377C5.19275 0.208377 6.21989 0.633833 6.97721 1.39115L31.0001 25.414L55.023 1.38779C55.7803 0.630475 56.8074 0.205017 57.8785 0.205017C58.9495 0.205017 59.9766 0.630475 60.7339 1.38779C61.4912 2.14511 61.9167 3.17225 61.9167 4.24326C61.9167 5.31427 61.4912 6.34141 60.7339 7.09873L60.7272 7.10209Z" fill="#E3DEDE"/>
</svg>
