<svg width="115" height="130" viewBox="0 0 115 130" fill="none" xmlns="http://www.w3.org/2000/svg">
<path d="M57.4998 95.8333C60.7905 95.8333 63.4582 93.0724 63.4582 89.6667C63.4582 86.2609 60.7905 83.5 57.4998 83.5C54.2091 83.5 51.5415 86.2609 51.5415 89.6667C51.5415 93.0724 54.2091 95.8333 57.4998 95.8333Z" stroke="black" stroke-width="6" stroke-linecap="round" stroke-linejoin="round"/>
<path d="M99.2083 52.6666H15.7917C9.21027 52.6666 3.875 58.1884 3.875 65V114.333C3.875 121.145 9.21027 126.667 15.7917 126.667H99.2083C105.79 126.667 111.125 121.145 111.125 114.333V65C111.125 58.1884 105.79 52.6666 99.2083 52.6666Z" stroke="black" stroke-width="6" stroke-linecap="round" stroke-linejoin="round"/>
<path d="M27.7085 52.6667V34.1667C27.7085 25.9892 30.8473 18.1466 36.4343 12.3642C42.0213 6.58188 49.5989 3.33337 57.5002 3.33337C65.4014 3.33337 72.979 6.58188 78.5661 12.3642C84.1531 18.1466 87.2918 25.9892 87.2918 34.1667V52.6667" stroke="black" stroke-width="6" stroke-linecap="round" stroke-linejoin="round"/>
</svg>
