<svg width="126" height="129" viewBox="0 0 126 129" fill="none" xmlns="http://www.w3.org/2000/svg">
<path d="M122.084 94.635V113.01C122.09 114.716 121.75 116.404 121.086 117.967C120.421 119.53 119.446 120.933 118.223 122.086C117 123.24 115.557 124.118 113.985 124.664C112.413 125.211 110.747 125.414 109.094 125.26C90.7596 123.212 73.1477 116.772 57.6739 106.456C43.2776 97.0523 31.072 84.5053 21.9239 69.7062C11.8542 53.7274 5.58764 35.5348 3.63186 16.6025C3.48296 14.9087 3.67878 13.2016 4.20684 11.5899C4.7349 9.97823 5.58363 8.4972 6.69901 7.24116C7.81438 5.98512 9.17195 4.98158 10.6853 4.29443C12.1986 3.60728 13.8346 3.25159 15.4889 3.24998H33.3639C36.2556 3.22073 39.0589 4.27334 41.2514 6.21162C43.4438 8.1499 44.8759 10.8416 45.2806 13.785C46.0351 19.6654 47.4342 25.4392 49.4514 30.9962C50.2531 33.1885 50.4266 35.5711 49.9514 37.8616C49.4762 40.1522 48.3722 42.2547 46.7702 43.92L39.2031 51.6987C47.6851 67.0329 60.0362 79.7295 74.9531 88.4487L82.5202 80.67C84.1402 79.0232 86.1855 77.8883 88.4137 77.3998C90.6419 76.9113 92.9596 77.0897 95.0923 77.9137C100.498 79.9874 106.115 81.4257 111.835 82.2012C114.73 82.621 117.373 84.1196 119.262 86.4121C121.152 88.7047 122.156 91.6311 122.084 94.635Z" stroke="black" stroke-width="6" stroke-linecap="round" stroke-linejoin="round"/>
</svg>
