<svg width="100" height="110" viewBox="0 0 100 110" fill="none" xmlns="http://www.w3.org/2000/svg">
<path d="M51.1367 3.33325H48.8633C46.1228 3.33325 43.4945 4.42194 41.5566 6.35981C39.6187 8.29769 38.53 10.926 38.53 13.6666V14.5966C38.5282 16.4087 38.0498 18.1884 37.143 19.7572C36.2361 21.3261 34.9327 22.6289 33.3633 23.5349L31.1417 24.8266C29.5708 25.7335 27.7889 26.211 25.975 26.211C24.1611 26.211 22.3792 25.7335 20.8083 24.8266L20.0333 24.4133C17.6622 23.0454 14.8452 22.6744 12.2007 23.3815C9.55621 24.0886 7.30036 25.8162 5.92834 28.1849L4.79168 30.1483C3.42387 32.5194 3.0528 35.3364 3.75993 37.9809C4.46707 40.6254 6.19461 42.8812 8.56334 44.2533L9.33834 44.7699C10.9001 45.6716 12.1987 46.9662 13.1051 48.5252C14.0115 50.0842 14.4941 51.8533 14.505 53.6566V56.2916C14.5122 58.1124 14.0382 59.9028 13.1309 61.4815C12.2236 63.0602 10.9153 64.3712 9.33834 65.2816L8.56334 65.7466C6.19461 67.1186 4.46707 69.3744 3.75993 72.0189C3.0528 74.6634 3.42387 77.4804 4.79168 79.8516L5.92834 81.8149C7.30036 84.1837 9.55621 85.9112 12.2007 86.6183C14.8452 87.3255 17.6622 86.9544 20.0333 85.5866L20.8083 85.1733C22.3792 84.2663 24.1611 83.7888 25.975 83.7888C27.7889 83.7888 29.5708 84.2663 31.1417 85.1733L33.3633 86.4649C34.9327 87.371 36.2361 88.6737 37.143 90.2426C38.0498 91.8114 38.5282 93.5912 38.53 95.4033V96.3333C38.53 99.0738 39.6187 101.702 41.5566 103.64C43.4945 105.578 46.1228 106.667 48.8633 106.667H51.1367C53.8773 106.667 56.5056 105.578 58.4435 103.64C60.3813 101.702 61.47 99.0738 61.47 96.3333V95.4033C61.4719 93.5912 61.9502 91.8114 62.8571 90.2426C63.7639 88.6737 65.0674 87.371 66.6367 86.4649L68.8583 85.1733C70.4292 84.2663 72.2111 83.7888 74.025 83.7888C75.8389 83.7888 77.6208 84.2663 79.1917 85.1733L79.9667 85.5866C82.3378 86.9544 85.1549 87.3255 87.7993 86.6183C90.4438 85.9112 92.6997 84.1837 94.0717 81.8149L95.2084 79.7999C96.5762 77.4288 96.9472 74.6117 96.2401 71.9673C95.533 69.3228 93.8054 67.0669 91.4367 65.6949L90.6617 65.2816C89.0848 64.3712 87.7764 63.0602 86.8691 61.4815C85.9618 59.9028 85.4878 58.1124 85.495 56.2916V53.7083C85.4878 51.8874 85.9618 50.097 86.8691 48.5183C87.7764 46.9396 89.0848 45.6287 90.6617 44.7183L91.4367 44.2533C93.8054 42.8812 95.533 40.6254 96.2401 37.9809C96.9472 35.3364 96.5762 32.5194 95.2084 30.1483L94.0717 28.1849C92.6997 25.8162 90.4438 24.0886 87.7993 23.3815C85.1549 22.6744 82.3378 23.0454 79.9667 24.4133L79.1917 24.8266C77.6208 25.7335 75.8389 26.211 74.025 26.211C72.2111 26.211 70.4292 25.7335 68.8583 24.8266L66.6367 23.5349C65.0674 22.6289 63.7639 21.3261 62.8571 19.7572C61.9502 18.1884 61.4719 16.4087 61.47 14.5966V13.6666C61.47 10.926 60.3813 8.29769 58.4435 6.35981C56.5056 4.42194 53.8773 3.33325 51.1367 3.33325Z" stroke="white" stroke-width="6" stroke-linecap="round" stroke-linejoin="round"/>
<path d="M50 70.5C58.5604 70.5 65.5 63.5604 65.5 55C65.5 46.4396 58.5604 39.5 50 39.5C41.4396 39.5 34.5 46.4396 34.5 55C34.5 63.5604 41.4396 70.5 50 70.5Z" stroke="white" stroke-width="6" stroke-linecap="round" stroke-linejoin="round"/>
</svg>
