<svg width="136" height="136" viewBox="0 0 136 136" fill="none" xmlns="http://www.w3.org/2000/svg">
<path d="M102 113.333C102 104.316 98.4179 95.6679 92.0416 89.2917C85.6654 82.9154 77.0174 79.3333 68 79.3333C58.9826 79.3333 50.3346 82.9154 43.9584 89.2917C37.5821 95.6679 34 104.316 34 113.333" stroke="black" stroke-width="6" stroke-linecap="round" stroke-linejoin="round"/>
<path d="M68.0002 79.3333C80.5186 79.3333 90.6668 69.1851 90.6668 56.6667C90.6668 44.1482 80.5186 34 68.0002 34C55.4817 34 45.3335 44.1482 45.3335 56.6667C45.3335 69.1851 55.4817 79.3333 68.0002 79.3333Z" stroke="black" stroke-width="6" stroke-linecap="round" stroke-linejoin="round"/>
<path d="M68.0002 124.667C99.2963 124.667 124.667 99.2961 124.667 68C124.667 36.7038 99.2963 11.3333 68.0002 11.3333C36.704 11.3333 11.3335 36.7038 11.3335 68C11.3335 99.2961 36.704 124.667 68.0002 124.667Z" stroke="black" stroke-width="6" stroke-linecap="round" stroke-linejoin="round"/>
</svg>
