<svg width="114" height="117" viewBox="0 0 114 117" fill="none" xmlns="http://www.w3.org/2000/svg">
<path d="M92.9634 113.894C92.9634 104.147 89.1969 94.7997 82.4925 87.9077C75.788 81.0158 66.6949 77.1439 57.2134 77.1439C47.7319 77.1439 38.6387 81.0158 31.9343 87.9077C25.2299 94.7997 21.4634 104.147 21.4634 113.894" stroke="black" stroke-width="6" stroke-linecap="round" stroke-linejoin="round"/>
<path d="M57.2132 77.1439C70.376 77.1439 81.0465 66.1749 81.0465 52.6439C81.0465 39.1129 70.376 28.1439 57.2132 28.1439C44.0504 28.1439 33.3799 39.1129 33.3799 52.6439C33.3799 66.1749 44.0504 77.1439 57.2132 77.1439Z" stroke="black" stroke-width="6" stroke-linecap="round" stroke-linejoin="round"/>
<path d="M98.9217 3.64392H15.505C8.92365 3.64392 3.58838 9.12843 3.58838 15.8939V101.644C3.58838 108.409 8.92365 113.894 15.505 113.894H98.9217C105.503 113.894 110.838 108.409 110.838 101.644V15.8939C110.838 9.12843 105.503 3.64392 98.9217 3.64392Z" stroke="black" stroke-width="6" stroke-linecap="round" stroke-linejoin="round"/>
</svg>
