<svg id="visual" viewBox="0 0 540 960" width="540" height="960" xmlns="http://www.w3.org/2000/svg" xmlns:xlink="http://www.w3.org/1999/xlink" version="1.1"><path d="M0 308L22.5 317.7C45 327.3 90 346.7 135 341.8C180 337 225 308 270 285.5C315 263 360 247 405 239C450 231 495 231 517.5 231L540 231L540 0L517.5 0C495 0 450 0 405 0C360 0 315 0 270 0C225 0 180 0 135 0C90 0 45 0 22.5 0L0 0Z" fill="#d0e989"></path><path d="M0 510L22.5 526C45 542 90 574 135 562.8C180 551.7 225 497.3 270 473.3C315 449.3 360 455.7 405 455.7C450 455.7 495 449.3 517.5 446.2L540 443L540 229L517.5 229C495 229 450 229 405 237C360 245 315 261 270 283.5C225 306 180 335 135 339.8C90 344.7 45 325.3 22.5 315.7L0 306Z" fill="#c1e264"></path><path d="M0 663L22.5 672.7C45 682.3 90 701.7 135 689C180 676.3 225 631.7 270 607.7C315 583.7 360 580.3 405 586.7C450 593 495 609 517.5 617L540 625L540 441L517.5 444.2C495 447.3 450 453.7 405 453.7C360 453.7 315 447.3 270 471.3C225 495.3 180 549.7 135 560.8C90 572 45 540 22.5 524L0 508Z" fill="#a9cb47"></path><path d="M0 961L22.5 961C45 961 90 961 135 961C180 961 225 961 270 961C315 961 360 961 405 961C450 961 495 961 517.5 961L540 961L540 623L517.5 615C495 607 450 591 405 584.7C360 578.3 315 581.7 270 605.7C225 629.7 180 674.3 135 687C90 699.7 45 680.3 22.5 670.7L0 661Z" fill="#89a537"></path></svg>